<?xml version="1.0" encoding="UTF-8"?>
<!DOCTYPE svg PUBLIC "-//W3C//DTD SVG 1.1//EN" "http://www.w3.org/Graphics/SVG/1.1/DTD/svg11.dtd">
<svg xmlns="http://www.w3.org/2000/svg" version="1.1" width="512px" height="512px" style="shape-rendering:geometricPrecision; text-rendering:geometricPrecision; image-rendering:optimizeQuality; fill-rule:evenodd; clip-rule:evenodd" xmlns:xlink="http://www.w3.org/1999/xlink">
<g><path style="opacity:0.972" fill="#000000" d="M 55.5,14.5 C 69.504,14.3334 83.504,14.5001 97.5,15C 98.6667,16.1667 99.8333,17.3333 101,18.5C 101.667,32.8333 101.667,47.1667 101,61.5C 100.167,62.3333 99.3333,63.1667 98.5,64C 84.5941,65.6309 70.5941,65.9642 56.5,65C 54.714,64.2155 53.214,63.0488 52,61.5C 51.3333,47.1667 51.3333,32.8333 52,18.5C 53.1022,17.051 54.2689,15.7177 55.5,14.5 Z"/></g>
<g><path style="opacity:0.968" fill="#000000" d="M 195.5,14.5 C 206.172,14.3335 216.839,14.5002 227.5,15C 228.667,16.1667 229.833,17.3333 231,18.5C 231.667,29.5 231.667,40.5 231,51.5C 230.167,52.3333 229.333,53.1667 228.5,54C 217.932,55.6188 207.265,55.9522 196.5,55C 194.714,54.2155 193.214,53.0488 192,51.5C 191.333,40.5 191.333,29.5 192,18.5C 193.102,17.051 194.269,15.7177 195.5,14.5 Z"/></g>
<g><path style="opacity:0.968" fill="#000000" d="M 283.5,14.5 C 294.172,14.3335 304.839,14.5002 315.5,15C 316.667,16.1667 317.833,17.3333 319,18.5C 319.667,29.5 319.667,40.5 319,51.5C 318.167,52.3333 317.333,53.1667 316.5,54C 305.932,55.6188 295.265,55.9522 284.5,55C 282.714,54.2155 281.214,53.0488 280,51.5C 279.333,40.5 279.333,29.5 280,18.5C 281.102,17.051 282.269,15.7177 283.5,14.5 Z"/></g>
<g><path style="opacity:0.972" fill="#000000" d="M 413.5,14.5 C 427.504,14.3334 441.504,14.5001 455.5,15C 456.667,16.1667 457.833,17.3333 459,18.5C 459.667,32.8333 459.667,47.1667 459,61.5C 458.167,62.3333 457.333,63.1667 456.5,64C 442.594,65.6309 428.594,65.9642 414.5,65C 412.714,64.2155 411.214,63.0488 410,61.5C 409.333,47.1667 409.333,32.8333 410,18.5C 411.102,17.051 412.269,15.7177 413.5,14.5 Z"/></g>
<g><path style="opacity:1" fill="#f2d761" d="M 66.5,29.5 C 73.1667,29.5 79.8333,29.5 86.5,29.5C 86.5,36.5 86.5,43.5 86.5,50.5C 79.8333,50.5 73.1667,50.5 66.5,50.5C 66.5,43.5 66.5,36.5 66.5,29.5 Z"/></g>
<g><path style="opacity:1" fill="#e8b549" d="M 206.5,29.5 C 209.833,29.5 213.167,29.5 216.5,29.5C 216.5,33.1667 216.5,36.8333 216.5,40.5C 213.167,40.5 209.833,40.5 206.5,40.5C 206.5,36.8333 206.5,33.1667 206.5,29.5 Z"/></g>
<g><path style="opacity:1" fill="#e7dd67" d="M 294.5,29.5 C 297.833,29.5 301.167,29.5 304.5,29.5C 304.5,33.1667 304.5,36.8333 304.5,40.5C 301.167,40.5 297.833,40.5 294.5,40.5C 294.5,36.8333 294.5,33.1667 294.5,29.5 Z"/></g>
<g><path style="opacity:1" fill="#f2d761" d="M 424.5,29.5 C 431.167,29.5 437.833,29.5 444.5,29.5C 444.5,36.5 444.5,43.5 444.5,50.5C 437.833,50.5 431.167,50.5 424.5,50.5C 424.5,43.5 424.5,36.5 424.5,29.5 Z"/></g>
<g><path style="opacity:0.975" fill="#000000" d="M 126.5,54.5 C 144.17,54.3334 161.836,54.5001 179.5,55C 180.667,56.1667 181.833,57.3333 183,58.5C 183.667,76.5 183.667,94.5 183,112.5C 182.167,113.333 181.333,114.167 180.5,115C 162.924,116.639 145.258,116.972 127.5,116C 125.714,115.215 124.214,114.049 123,112.5C 122.333,94.5 122.333,76.5 123,58.5C 124.102,57.051 125.269,55.7177 126.5,54.5 Z"/></g>
<g><path style="opacity:0.975" fill="#000000" d="M 331.5,54.5 C 349.17,54.3334 366.836,54.5001 384.5,55C 385.667,56.1667 386.833,57.3333 388,58.5C 388.667,76.5 388.667,94.5 388,112.5C 387.167,113.333 386.333,114.167 385.5,115C 367.924,116.639 350.258,116.972 332.5,116C 330.714,115.215 329.214,114.049 328,112.5C 327.333,94.5 327.333,76.5 328,58.5C 329.102,57.051 330.269,55.7177 331.5,54.5 Z"/></g>
<g><path style="opacity:0.968" fill="#000000" d="M -0.5,99.5 C -0.5,88.5 -0.5,77.5 -0.5,66.5C 0.639972,65.1986 1.97331,64.0319 3.5,63C 14.1667,62.3333 24.8333,62.3333 35.5,63C 36.6667,64.1667 37.8333,65.3333 39,66.5C 39.6667,77.5 39.6667,88.5 39,99.5C 37.786,101.049 36.286,102.215 34.5,103C 24.5,103.667 14.5,103.667 4.5,103C 2.67694,102.003 1.01027,100.836 -0.5,99.5 Z"/></g>
<g><path style="opacity:0.968" fill="#000000" d="M 511.5,66.5 C 511.5,77.5 511.5,88.5 511.5,99.5C 509.99,100.836 508.323,102.003 506.5,103C 496.5,103.667 486.5,103.667 476.5,103C 474.714,102.215 473.214,101.049 472,99.5C 471.333,88.5 471.333,77.5 472,66.5C 472.833,65 474,63.8333 475.5,63C 486.167,62.3333 496.833,62.3333 507.5,63C 508.705,64.3756 510.038,65.5423 511.5,66.5 Z"/></g>
<g><path style="opacity:0.972" fill="#000000" d="M 234.5,66.5 C 248.504,66.3334 262.504,66.5001 276.5,67C 277.667,68.1667 278.833,69.3333 280,70.5C 280.667,84.8333 280.667,99.1667 280,113.5C 279.167,114.333 278.333,115.167 277.5,116C 263.594,117.631 249.594,117.964 235.5,117C 233.714,116.215 232.214,115.049 231,113.5C 230.333,99.1667 230.333,84.8333 231,70.5C 232.102,69.051 233.269,67.7177 234.5,66.5 Z"/></g>
<g><path style="opacity:1" fill="#f5eb6d" d="M 137.5,69.5 C 147.833,69.5 158.167,69.5 168.5,69.5C 168.5,80.1667 168.5,90.8333 168.5,101.5C 158.167,101.5 147.833,101.5 137.5,101.5C 137.5,90.8333 137.5,80.1667 137.5,69.5 Z"/></g>
<g><path style="opacity:1" fill="#f6c04e" d="M 342.5,69.5 C 352.833,69.5 363.167,69.5 373.5,69.5C 373.5,80.1667 373.5,90.8333 373.5,101.5C 363.167,101.5 352.833,101.5 342.5,101.5C 342.5,90.8333 342.5,80.1667 342.5,69.5 Z"/></g>
<g><path style="opacity:1" fill="#e8b549" d="M 14.5,77.5 C 17.8333,77.5 21.1667,77.5 24.5,77.5C 24.5,81.1667 24.5,84.8333 24.5,88.5C 21.1667,88.5 17.8333,88.5 14.5,88.5C 14.5,84.8333 14.5,81.1667 14.5,77.5 Z"/></g>
<g><path style="opacity:1" fill="#e7dd67" d="M 486.5,77.5 C 489.833,77.5 493.167,77.5 496.5,77.5C 496.5,81.1667 496.5,84.8333 496.5,88.5C 493.167,88.5 489.833,88.5 486.5,88.5C 486.5,84.8333 486.5,81.1667 486.5,77.5 Z"/></g>
<g><path style="opacity:1" fill="#f2d761" d="M 245.5,81.5 C 252.167,81.5 258.833,81.5 265.5,81.5C 265.5,88.5 265.5,95.5 265.5,102.5C 258.833,102.5 252.167,102.5 245.5,102.5C 245.5,95.5 245.5,88.5 245.5,81.5 Z"/></g>
<g><path style="opacity:0.992" fill="#020203" d="M 511.5,197.5 C 511.5,253.167 511.5,308.833 511.5,364.5C 509.787,366.85 507.453,367.85 504.5,367.5C 500.91,367.456 498.41,365.789 497,362.5C 496.667,309.167 496.333,255.833 496,202.5C 493.281,201.556 490.448,201.223 487.5,201.5C 485.5,201.5 483.5,201.5 481.5,201.5C 481.667,276.501 481.5,351.501 481,426.5C 479.388,435.111 474.221,439.945 465.5,441C 404.501,441.5 343.501,441.667 282.5,441.5C 282.666,450.173 282.5,458.84 282,467.5C 280.786,469.049 279.286,470.215 277.5,471C 262.833,471.667 248.167,471.667 233.5,471C 231.714,470.215 230.214,469.049 229,467.5C 228.5,458.84 228.334,450.173 228.5,441.5C 166.832,441.667 105.166,441.5 43.5,441C 35.8858,439.053 31.3858,434.22 30,426.5C 29.3333,384.167 29.3333,341.833 30,299.5C 31.1585,296.507 33.3252,294.84 36.5,294.5C 40.0897,294.544 42.5897,296.211 44,299.5C 44.3333,341.167 44.6667,382.833 45,424.5C 45.3826,425.056 45.8826,425.389 46.5,425.5C 107.001,426.832 167.668,426.832 228.5,425.5C 228.376,424.893 228.043,424.56 227.5,424.5C 217.421,419.143 206.755,415.31 195.5,413C 154.859,411.714 114.192,411.047 73.5,411C 66.3333,409.167 61.8333,404.667 60,397.5C 59.5,322.167 59.3333,246.834 59.5,171.5C 56.1667,171.5 52.8333,171.5 49.5,171.5C 47.8333,171.5 46.1667,171.5 44.5,171.5C 44.6666,204.168 44.5,236.835 44,269.5C 42.5897,272.789 40.0897,274.456 36.5,274.5C 33.3579,274.201 31.1912,272.534 30,269.5C 29.5,246.836 29.3334,224.169 29.5,201.5C 24.57,201.197 19.7367,201.531 15,202.5C 14.3333,286.5 14.3333,370.5 15,454.5C 15.5,455 16,455.5 16.5,456C 82.5,456.333 148.5,456.667 214.5,457C 216.049,458.214 217.215,459.714 218,461.5C 217.859,471.693 222.692,478.193 232.5,481C 247.833,481.667 263.167,481.667 278.5,481C 288.918,477.677 294.085,470.51 294,459.5C 295.129,457.859 296.629,456.859 298.5,456.5C 363.834,456.667 429.168,456.5 494.5,456C 495,455.5 495.5,455 496,454.5C 496.333,433.833 496.667,413.167 497,392.5C 498.41,389.211 500.91,387.544 504.5,387.5C 507.453,387.15 509.787,388.15 511.5,390.5C 511.5,413.5 511.5,436.5 511.5,459.5C 509.251,465.577 504.917,469.411 498.5,471C 434.831,471.167 371.164,471.667 307.5,472.5C 303.094,485.073 294.428,492.907 281.5,496C 264.167,496.667 246.833,496.667 229.5,496C 216.572,492.907 207.906,485.073 203.5,472.5C 139.836,471.667 76.1693,471.167 12.5,471C 6.05784,469.383 1.72451,465.55 -0.5,459.5C -0.5,372.167 -0.5,284.833 -0.5,197.5C 1.22399,192.606 4.55732,189.106 9.5,187C 16.0764,185.623 22.7431,185.123 29.5,185.5C 25.7782,161.888 35.7782,151.888 59.5,155.5C 59.1156,148.411 59.6156,141.411 61,134.5C 62.9069,130.961 65.7403,128.461 69.5,127C 89.2711,125.851 109.104,125.351 129,125.5C 147.833,125.667 166.667,125.833 185.5,126C 211.404,128.791 234.737,137.958 255.5,153.5C 273.888,139.476 294.554,130.643 317.5,127C 357.807,125.381 398.141,125.047 438.5,126C 444.87,127.436 449.037,131.269 451,137.5C 451.499,143.491 451.666,149.491 451.5,155.5C 475.189,151.856 485.189,161.856 481.5,185.5C 488.257,185.123 494.924,185.623 501.5,187C 506.416,189.081 509.75,192.581 511.5,197.5 Z"/></g>
<g><path style="opacity:1" fill="#f2f8f9" d="M 74.5,141.5 C 112.168,141.333 149.835,141.5 187.5,142C 210.084,144.878 230.25,153.378 248,167.5C 248.5,176.16 248.666,184.827 248.5,193.5C 229.445,193.051 210.445,193.551 191.5,195C 183.253,199.324 179.587,206.157 180.5,215.5C 173.468,215.83 166.468,215.497 159.5,214.5C 152.333,205.5 145.167,196.5 138,187.5C 139.781,181.343 140.448,175.01 140,168.5C 133.768,153.421 122.935,148.587 107.5,154C 95.8912,161.495 92.7245,171.662 98,184.5C 104.47,194.768 113.637,198.601 125.5,196C 134.5,207 143.5,218 152.5,229C 161.827,229.5 171.161,229.666 180.5,229.5C 180.5,240.167 180.5,250.833 180.5,261.5C 168.162,261.667 155.829,261.5 143.5,261C 138.478,255.978 133.478,250.978 128.5,246C 133.112,232.557 129.112,222.557 116.5,216C 98.8589,211.819 88.5255,218.652 85.5,236.5C 86.0325,247.867 91.6992,255.367 102.5,259C 107.972,259.583 113.305,259.25 118.5,258C 122.647,260.98 126.314,264.48 129.5,268.5C 125.526,272.138 121.526,275.805 117.5,279.5C 105.852,274.806 96.3522,277.473 89,287.5C 82.2709,302.313 86.1042,313.48 100.5,321C 123.697,322.806 133.197,312.306 129,289.5C 134.134,285.367 138.968,280.867 143.5,276C 155.829,275.5 168.162,275.333 180.5,275.5C 180.5,285.833 180.5,296.167 180.5,306.5C 171.494,306.334 162.494,306.5 153.5,307C 143.938,318.11 134.605,329.443 125.5,341C 105.266,338.233 95.4329,347.066 96,367.5C 101.459,382.646 111.959,387.812 127.5,383C 137.699,377.099 141.866,368.266 140,356.5C 138.41,354.35 137.743,352.017 138,349.5C 145,340.5 152,331.5 159,322.5C 166.079,321.52 173.245,321.187 180.5,321.5C 179.751,332.242 184.418,339.408 194.5,343C 212.497,343.5 230.497,343.667 248.5,343.5C 248.5,368.5 248.5,393.5 248.5,418.5C 235.251,410.906 221.251,404.739 206.5,400C 200.5,399 194.5,398 188.5,397C 151.167,396.667 113.833,396.333 76.5,396C 76,395.5 75.5,395 75,394.5C 74.5,310.167 74.3333,225.834 74.5,141.5 Z"/></g>
<g><path style="opacity:1" fill="#f2f8f9" d="M 402.5,408.5 C 394.757,409.13 387.424,408.463 380.5,406.5C 381.296,402.316 379.963,399.15 376.5,397C 355.141,396.124 333.808,396.457 312.5,398C 304.591,399.56 296.924,401.894 289.5,405C 280.337,409.369 271.337,413.869 262.5,418.5C 262.5,393.5 262.5,368.5 262.5,343.5C 280.503,343.667 298.503,343.5 316.5,343C 326.619,339.382 331.285,332.215 330.5,321.5C 337.755,321.187 344.921,321.52 352,322.5C 359,331.5 366,340.5 373,349.5C 368.273,360.806 370.107,370.973 378.5,380C 388.124,385.904 397.79,385.904 407.5,380C 418.111,368.303 418.111,356.636 407.5,345C 404.874,342.854 401.874,341.521 398.5,341C 393.833,340.667 389.167,340.333 384.5,340C 376.046,329.591 367.713,319.091 359.5,308.5C 358.5,308 357.5,307.5 356.5,307C 347.84,306.5 339.173,306.334 330.5,306.5C 330.5,296.5 330.5,286.5 330.5,276.5C 343.171,276.333 355.838,276.5 368.5,277C 372.699,281.534 377.199,285.701 382,289.5C 377.665,311.83 386.832,322.33 409.5,321C 419.795,317.595 425.128,310.429 425.5,299.5C 422.885,283.073 413.219,275.906 396.5,278C 395.5,278.5 394.5,279 393.5,279.5C 389.474,275.805 385.474,272.138 381.5,268.5C 384.742,264.548 388.408,261.048 392.5,258C 414.118,262.381 424.952,253.548 425,231.5C 418.118,215.237 406.618,210.737 390.5,218C 380.931,225.372 378.264,234.706 382.5,246C 377.522,250.978 372.522,255.978 367.5,261C 355.171,261.5 342.838,261.667 330.5,261.5C 330.5,250.833 330.5,240.167 330.5,229.5C 339.839,229.666 349.173,229.5 358.5,229C 367.5,218 376.5,207 385.5,196C 402.961,198.437 412.961,190.937 415.5,173.5C 413.717,160.051 406.05,152.717 392.5,151.5C 379.732,153.101 372.399,160.268 370.5,173C 371.278,177.92 372.111,182.754 373,187.5C 365.833,196.5 358.667,205.5 351.5,214.5C 344.532,215.497 337.532,215.83 330.5,215.5C 331.249,204.758 326.582,197.592 316.5,194C 312.833,193.333 309.167,193.333 305.5,194C 302.507,195.159 300.84,197.325 300.5,200.5C 293.833,200.5 287.167,200.5 280.5,200.5C 280.16,197.325 278.493,195.159 275.5,194C 271.179,193.501 266.846,193.334 262.5,193.5C 262.334,184.827 262.5,176.16 263,167.5C 279.767,154.535 298.6,146.035 319.5,142C 358.499,141.5 397.499,141.333 436.5,141.5C 436.667,225.834 436.5,310.167 436,394.5C 435.5,395 435,395.5 434.5,396C 424.5,396.333 414.5,396.667 404.5,397C 401.351,400.341 400.684,404.175 402.5,408.5 Z"/></g>
<g><path style="opacity:1" fill="#d3caf5" d="M 114.5,166.5 C 125.132,166.593 127.799,171.093 122.5,180C 113.945,182.789 110.112,179.622 111,170.5C 112.376,169.295 113.542,167.962 114.5,166.5 Z"/></g>
<g><path style="opacity:1" fill="#d3caf5" d="M 389.5,166.5 C 400.132,166.593 402.799,171.093 397.5,180C 388.945,182.789 385.112,179.622 386,170.5C 387.376,169.295 388.542,167.962 389.5,166.5 Z"/></g>
<g><path style="opacity:1" fill="#dcf6fe" d="M 49.5,171.5 C 49.3333,248.167 49.5,324.834 50,401.5C 53.679,411.266 60.5123,417.766 70.5,421C 107.5,421.333 144.5,421.667 181.5,422C 187.874,421.945 193.874,423.111 199.5,425.5C 148.5,425.5 97.5,425.5 46.5,425.5C 45.8826,425.389 45.3826,425.056 45,424.5C 44.6667,382.833 44.3333,341.167 44,299.5C 42.5897,296.211 40.0897,294.544 36.5,294.5C 36.5,287.833 36.5,281.167 36.5,274.5C 40.0897,274.456 42.5897,272.789 44,269.5C 44.5,236.835 44.6666,204.168 44.5,171.5C 46.1667,171.5 47.8333,171.5 49.5,171.5 Z"/></g>
<g><path style="opacity:1" fill="#b5e8fe" d="M 49.5,171.5 C 52.8333,171.5 56.1667,171.5 59.5,171.5C 59.3333,246.834 59.5,322.167 60,397.5C 61.8333,404.667 66.3333,409.167 73.5,411C 114.192,411.047 154.859,411.714 195.5,413C 206.755,415.31 217.421,419.143 227.5,424.5C 218.348,425.494 209.015,425.827 199.5,425.5C 193.874,423.111 187.874,421.945 181.5,422C 144.5,421.667 107.5,421.333 70.5,421C 60.5123,417.766 53.679,411.266 50,401.5C 49.5,324.834 49.3333,248.167 49.5,171.5 Z"/></g>
<g><path style="opacity:1" fill="#b4e7fd" d="M 461.5,171.5 C 461.667,248.167 461.5,324.834 461,401.5C 457.277,412.289 449.777,418.789 438.5,421C 400.167,421.333 361.833,421.667 323.5,422C 318.654,422.953 313.987,424.119 309.5,425.5C 300.651,425.826 291.984,425.493 283.5,424.5C 294.789,418.359 306.789,414.192 319.5,412C 338.167,411.667 356.833,411.333 375.5,411C 377.659,409.941 379.326,408.441 380.5,406.5C 387.424,408.463 394.757,409.13 402.5,408.5C 403.289,408.783 403.956,409.283 404.5,410C 416.167,410.667 427.833,410.667 439.5,410C 445.731,408.037 449.564,403.87 451,397.5C 451.5,322.167 451.667,246.834 451.5,171.5C 454.833,171.5 458.167,171.5 461.5,171.5 Z"/></g>
<g><path style="opacity:1" fill="#dcf7fe" d="M 461.5,171.5 C 463.167,171.5 464.833,171.5 466.5,171.5C 466.667,255.834 466.5,340.167 466,424.5C 465.617,425.056 465.117,425.389 464.5,425.5C 412.833,425.5 361.167,425.5 309.5,425.5C 313.987,424.119 318.654,422.953 323.5,422C 361.833,421.667 400.167,421.333 438.5,421C 449.777,418.789 457.277,412.289 461,401.5C 461.5,324.834 461.667,248.167 461.5,171.5 Z"/></g>
<g><path style="opacity:1" fill="#857385" d="M 36.5,274.5 C 36.5,281.167 36.5,287.833 36.5,294.5C 33.3252,294.84 31.1585,296.507 30,299.5C 29.3333,341.833 29.3333,384.167 30,426.5C 31.3858,434.22 35.8858,439.053 43.5,441C 105.166,441.5 166.832,441.667 228.5,441.5C 228.334,450.173 228.5,458.84 229,467.5C 230.214,469.049 231.714,470.215 233.5,471C 248.167,471.667 262.833,471.667 277.5,471C 279.286,470.215 280.786,469.049 282,467.5C 282.5,458.84 282.666,450.173 282.5,441.5C 343.501,441.667 404.501,441.5 465.5,441C 474.221,439.945 479.388,435.111 481,426.5C 481.5,351.501 481.667,276.501 481.5,201.5C 483.5,201.5 485.5,201.5 487.5,201.5C 487.5,286.167 487.5,370.833 487.5,455.5C 424.331,455.168 361.331,455.501 298.5,456.5C 296.629,456.859 295.129,457.859 294,459.5C 294.085,470.51 288.918,477.677 278.5,481C 263.167,481.667 247.833,481.667 232.5,481C 222.692,478.193 217.859,471.693 218,461.5C 217.215,459.714 216.049,458.214 214.5,457C 148.5,456.667 82.5,456.333 16.5,456C 16,455.5 15.5,455 15,454.5C 14.3333,370.5 14.3333,286.5 15,202.5C 19.7367,201.531 24.57,201.197 29.5,201.5C 29.3334,224.169 29.5,246.836 30,269.5C 31.1912,272.534 33.3579,274.201 36.5,274.5 Z"/></g>
<g><path style="opacity:1" fill="#5cd6ea" d="M 280.5,200.5 C 287.167,200.5 293.833,200.5 300.5,200.5C 300.549,203.099 301.549,205.266 303.5,207C 307.521,207.803 311.354,208.969 315,210.5C 315.667,249.167 315.667,287.833 315,326.5C 314.5,327 314,327.5 313.5,328C 274.833,328.667 236.167,328.667 197.5,328C 197,327.5 196.5,327 196,326.5C 195.333,287.833 195.333,249.167 196,210.5C 196.5,210 197,209.5 197.5,209C 223.5,208.667 249.5,208.333 275.5,208C 278.789,206.59 280.456,204.09 280.5,200.5 Z"/></g>
<g><path style="opacity:0.996" fill="#725e72" d="M 487.5,201.5 C 490.448,201.223 493.281,201.556 496,202.5C 496.333,255.833 496.667,309.167 497,362.5C 498.41,365.789 500.91,367.456 504.5,367.5C 504.5,374.167 504.5,380.833 504.5,387.5C 500.91,387.544 498.41,389.211 497,392.5C 496.667,413.167 496.333,433.833 496,454.5C 495.5,455 495,455.5 494.5,456C 429.168,456.5 363.834,456.667 298.5,456.5C 361.331,455.501 424.331,455.168 487.5,455.5C 487.5,370.833 487.5,286.167 487.5,201.5 Z"/></g>
<g><path style="opacity:1" fill="#bbb1ef" d="M 104.5,229.5 C 112.161,228.663 115.661,231.996 115,239.5C 111.455,245.209 107.121,245.875 102,241.5C 99.5112,236.757 100.345,232.757 104.5,229.5 Z"/></g>
<g><path style="opacity:1" fill="#bbb1ef" d="M 399.5,229.5 C 407.161,228.663 410.661,231.996 410,239.5C 406.455,245.209 402.121,245.875 397,241.5C 394.511,236.757 395.345,232.757 399.5,229.5 Z"/></g>
<g><path style="opacity:1" fill="#020404" d="M 236.5,229.5 C 243.684,229.181 248.184,232.515 250,239.5C 256.803,258.244 263.803,276.911 271,295.5C 273.023,303.126 270.19,306.959 262.5,307C 260.714,306.215 259.214,305.049 258,303.5C 256.495,299.65 254.995,295.817 253.5,292C 244.167,291.333 234.833,291.333 225.5,292C 223.95,297.101 221.616,301.767 218.5,306C 214.334,308.251 210.834,307.417 208,303.5C 207.333,300.833 207.333,298.167 208,295.5C 215.333,276.167 222.667,256.833 230,237.5C 231.305,234.039 233.471,231.372 236.5,229.5 Z"/></g>
<g><path style="opacity:1" fill="#000101" d="M 288.5,229.5 C 292.025,229.346 294.859,230.679 297,233.5C 297.667,256.833 297.667,280.167 297,303.5C 292.667,308.833 288.333,308.833 284,303.5C 283.333,280.167 283.333,256.833 284,233.5C 285.397,231.93 286.897,230.596 288.5,229.5 Z"/></g>
<g><path style="opacity:1" fill="#58cfe2" d="M 238.5,255.5 C 239.497,255.47 240.164,255.97 240.5,257C 242.735,263.206 245.068,269.372 247.5,275.5C 242.167,276.833 236.833,276.833 231.5,275.5C 234.239,268.949 236.572,262.282 238.5,255.5 Z"/></g>
<g><path style="opacity:1" fill="#a290e7" d="M 104.5,292.5 C 112.161,291.663 115.661,294.996 115,302.5C 111.455,308.209 107.121,308.875 102,304.5C 99.5112,299.757 100.345,295.757 104.5,292.5 Z"/></g>
<g><path style="opacity:1" fill="#a290e7" d="M 399.5,292.5 C 407.161,291.663 410.661,294.996 410,302.5C 406.455,308.209 402.121,308.875 397,304.5C 394.511,299.757 395.345,295.757 399.5,292.5 Z"/></g>
<g><path style="opacity:1" fill="#8968d5" d="M 114.5,355.5 C 120.766,354.117 124.433,356.45 125.5,362.5C 124.383,368.732 120.717,370.898 114.5,369C 109.234,364.455 109.234,359.955 114.5,355.5 Z"/></g>
<g><path style="opacity:1" fill="#8968d5" d="M 389.5,355.5 C 395.766,354.117 399.433,356.45 400.5,362.5C 399.383,368.732 395.717,370.898 389.5,369C 384.234,364.455 384.234,359.955 389.5,355.5 Z"/></g>
<g><path style="opacity:1" fill="#738287" d="M 227.5,424.5 C 228.043,424.56 228.376,424.893 228.5,425.5C 167.668,426.832 107.001,426.832 46.5,425.5C 97.5,425.5 148.5,425.5 199.5,425.5C 209.015,425.827 218.348,425.494 227.5,424.5 Z"/></g>
<g><path style="opacity:1" fill="#738287" d="M 283.5,424.5 C 291.984,425.493 300.651,425.826 309.5,425.5C 361.167,425.5 412.833,425.5 464.5,425.5C 403.999,426.832 343.332,426.832 282.5,425.5C 282.624,424.893 282.957,424.56 283.5,424.5 Z"/></g>
<g><path style="opacity:1" fill="#735e73" d="M 243.5,433.5 C 251.136,436.163 258.803,436.163 266.5,433.5C 267.497,441.138 267.831,448.804 267.5,456.5C 259.5,456.5 251.5,456.5 243.5,456.5C 243.5,448.833 243.5,441.167 243.5,433.5 Z"/></g>
</svg>
